<svg width="24" height="24" viewBox="0 0 24 24" fill="none" xmlns="http://www.w3.org/2000/svg">
<path fill-rule="evenodd" clip-rule="evenodd" d="M21.0858 8.41421C21.8668 7.63317 21.8668 6.36684 21.0858 5.58579L18.4142 2.91421C17.6332 2.13316 16.3668 2.13316 15.5858 2.91421L3.58579 14.9142C3.21071 15.2893 3 15.798 3 16.3284V20C3 20.5523 3.44772 21 4 21H7.67157C8.20201 21 8.71071 20.7893 9.08579 20.4142L21.0858 8.41421ZM13.4952 8.54038L15.4596 10.5048L7.46447 18.5H5.5V16.5355L13.4952 8.54038ZM17.2274 8.73708L15.2629 6.77261L17 5.03553L18.9645 7L17.2274 8.73708Z" fill="#121417"/>
</svg>
