<svg width="24" height="24" viewBox="0 0 24 24" fill="none" xmlns="http://www.w3.org/2000/svg">
<path d="M10.9549 18.1872L6.0177 13.25H20.7499C21.4403 13.25 21.9999 12.6904 21.9999 12C21.9999 11.3097 21.4403 10.75 20.7499 10.75H6.01771L10.9549 5.81284C11.443 5.32469 11.443 4.53323 10.9549 4.04507C10.8939 3.98405 10.8281 3.93066 10.7588 3.8849C10.2736 3.56454 9.61426 3.61794 9.18712 4.04507L2.11606 11.1161C1.6279 11.6043 1.6279 12.3958 2.11606 12.8839L9.18712 19.955C9.67528 20.4431 10.4667 20.4431 10.9549 19.955C11.443 19.4668 11.443 18.6754 10.9549 18.1872Z" fill="#121417"/>
</svg>
