<svg width="975" height="201" viewBox="0 0 975 201" fill="none" xmlns="http://www.w3.org/2000/svg">
<path d="M366.486 182.375C367.158 188.659 362.424 194.212 356.111 194.534C339.305 195.41 317.765 195.79 307.097 195.177C288.363 193.394 278.192 181.82 276.585 164.284C275.591 151.512 275.796 53.398 277.608 41.2397C278.397 35.0436 284.359 30.8642 290.964 29.8705C306.074 28.4092 333.869 28.5261 352.925 29.812C359.179 30.2212 363.797 35.7743 363.096 41.9996L362.92 43.6947C362.277 49.4231 357.309 53.6902 351.522 53.4564C335.272 52.8134 316.333 52.9011 308.325 53.398C305.724 53.6026 304.525 55.0054 304.146 60.5877C303.736 65.9654 303.152 151.103 303.736 161.069C303.941 167.85 307.331 171.445 314.901 172.438C322.12 173.666 341.088 173.461 354.883 172.584C360.758 172.204 365.872 176.53 366.515 182.375H366.486ZM398.548 39.0477C401.09 72.0446 401.383 152.739 399.921 184.304C399.6 190.88 393.667 195.703 387.149 194.651L382.765 193.92C377.388 193.043 373.442 188.338 373.559 182.872C373.822 168.434 374.114 141.487 374.231 125.588C374.29 119.363 369.146 114.336 362.95 114.511L355.701 114.716C349.827 114.891 344.858 110.39 344.449 104.515V104.194C343.981 97.9979 348.745 92.6786 354.941 92.4156L362.628 92.0941C368.59 91.8603 373.296 86.8917 373.179 80.9295C372.974 69.5311 372.565 52.3458 371.951 41.415C371.659 35.9789 375.4 31.1565 380.719 30.0458L385.396 29.0814C391.913 27.7369 398.08 32.4132 398.606 39.0184L398.548 39.0477ZM433.357 38.1416C435.812 71.1386 436.104 151.804 434.613 182.901C434.292 189.331 428.593 194.124 422.192 193.277L417.808 192.692C412.226 191.962 408.105 187.168 408.251 181.557C408.982 152.389 408.719 71.3139 406.848 40.5967C406.527 35.1021 410.268 30.2212 415.675 29.1398L420.263 28.2338C426.722 26.9478 432.889 31.5656 433.386 38.1416H433.357Z" fill="white"/>
<path d="M536.497 199.999L532.201 199.882C526.326 199.707 521.621 194.914 521.592 189.039L521.358 161.069C521.299 155.136 516.536 150.314 510.603 150.197C496.398 149.963 475.414 149.378 461.852 148.677C455.715 148.355 451.068 143.065 451.506 136.928C451.945 131.053 456.913 126.582 462.788 126.786C492.044 127.868 567.127 127.926 603.017 126.786C608.833 126.611 613.773 131.024 614.24 136.84V136.957C614.766 143.124 610.061 148.502 603.865 148.794C590.421 149.437 571.131 149.934 558.505 150.167C552.543 150.284 547.75 155.136 547.75 161.127V189.068C547.75 195.235 542.635 200.204 536.468 199.999H536.497ZM595.272 120.181H591.093C584.897 120.181 579.928 115.037 580.162 108.841C580.688 93.9646 581.097 73.7982 579.694 65.3224C577.502 53.5733 577.502 53.3687 564.935 53.3687C555.758 53.3687 498.298 53.2226 469.042 54.1578C463.46 54.3332 458.667 50.2707 457.878 44.7468L457.556 42.4379C456.65 35.9788 461.531 30.1627 468.048 29.9581C498.824 29.0229 562.86 28.4091 575.515 29.2567C596.061 29.6659 602.842 34.0499 605.239 49.3939C606.671 58.0742 607.226 91.188 606.232 109.805C605.911 115.622 601.118 120.181 595.301 120.181H595.272Z" fill="white"/>
<path d="M662.231 87.5054C659.25 87.3008 657.642 88.4991 657.642 91.1003C657.847 99.0792 660.448 99.6637 676.581 102.265C685.086 103.668 753.681 103.668 780.57 101.943C785.743 101.622 790.39 105.071 791.559 110.127C793.079 116.615 788.373 122.899 781.739 123.22C751.372 124.711 681.52 124.886 668.368 123.396C639.259 120.21 631.484 110.244 631.075 88.2945C630.87 74.5288 634.056 66.959 645.63 66.959H758.474C764.056 66.959 764.641 65.9653 764.846 64.3579C765.255 60.5584 765.255 60.1785 765.05 56.379C764.846 52.5795 764.261 52.9887 761.251 52.5795C752.19 51.7027 675.967 52.1996 647.968 53.281C642.883 53.4855 638.352 50.0076 637.213 45.039L636.891 43.6362C635.371 37.1186 640.165 30.8349 646.857 30.6011C679.358 29.432 759.293 29.5489 771.451 31.0395C780.423 32.0332 787.993 31.4486 789.981 44.396C790.39 50.7675 791.383 67.1344 790.185 75.6978C789.396 87.2424 776.361 87.4469 768.704 88.4114C768.382 88.4407 768.119 88.4699 767.827 88.4699C750.934 89.0252 674.652 88.2361 662.201 87.4469L662.231 87.5054ZM716.475 197.252L710.601 197.076C704.872 196.901 700.284 192.225 700.255 186.496L700.167 167.616C700.138 161.8 695.461 157.094 689.675 157.036C675.85 156.86 655.713 156.422 642.678 155.75C636.745 155.428 632.244 150.343 632.624 144.41C633.004 138.594 637.973 134.151 643.789 134.473C673.337 136.08 747.982 136.343 784.135 134.327C789.893 134.005 794.832 138.331 795.3 144.059V144.147C795.826 150.167 791.237 155.37 785.217 155.662C771.363 156.334 750.934 156.802 737.899 157.006C732.082 157.094 727.406 161.829 727.406 167.645V186.613C727.406 192.605 722.438 197.427 716.446 197.252H716.475Z" fill="white"/>
<path d="M841.682 87.5054C838.701 87.3008 837.094 88.4991 837.094 91.1003C837.298 99.0792 839.9 99.6637 856.033 102.265C864.538 103.668 933.133 103.668 960.021 101.943C965.194 101.622 969.841 105.071 971.01 110.127C972.53 116.615 967.825 122.899 961.19 123.22C930.824 124.711 860.972 124.886 847.82 123.396C818.71 120.21 810.936 110.244 810.527 88.2945C810.322 74.5288 813.508 66.959 825.082 66.959H937.926C943.508 66.959 944.122 65.9653 944.297 64.3579C944.706 60.5584 944.706 60.1785 944.502 56.379C944.297 52.5795 943.713 52.9887 940.702 52.5795C931.642 51.7027 855.419 52.1996 827.42 53.281C822.334 53.4855 817.804 50.0076 816.664 45.039L816.343 43.6362C814.823 37.1186 819.616 30.8349 826.309 30.6011C858.809 29.432 938.744 29.5489 950.902 31.0395C959.875 32.0332 967.445 31.4486 969.461 44.396C969.871 50.7675 970.864 67.1344 969.666 75.6978C968.877 87.2424 955.842 87.4469 948.184 88.4114C947.863 88.4407 947.6 88.4699 947.308 88.4699C930.415 89.0252 854.133 88.2361 841.682 87.4469V87.5054ZM895.927 197.252L890.053 197.076C884.324 196.901 879.735 192.225 879.706 186.496L879.619 167.616C879.589 161.8 874.913 157.094 869.126 157.036C855.302 156.86 835.165 156.422 822.13 155.75C816.197 155.428 811.696 150.343 812.076 144.41C812.456 138.594 817.424 134.151 823.24 134.473C852.789 136.08 927.433 136.343 963.587 134.327C969.315 134.005 974.284 138.331 974.751 144.059V144.147C975.278 150.167 970.689 155.37 964.668 155.662C950.815 156.334 930.385 156.802 917.35 157.006C911.534 157.094 906.858 161.829 906.858 167.645V186.613C906.858 192.605 901.889 197.427 895.898 197.252H895.927Z" fill="white"/>
<path d="M200.131 62.1513C186.587 47.6517 168.609 38.8567 149.253 37.1955L167.206 19.2385C169.336 17.1138 170.508 14.2808 170.508 11.274C170.508 8.26722 169.336 5.43427 167.206 3.30956C165.082 1.1784 162.249 0.0065918 159.243 0.0065918C156.237 0.0065918 153.405 1.1784 151.281 3.30956L114.384 40.2152C112.254 42.3399 111.082 45.1729 111.082 48.1797C111.082 51.1865 112.254 54.0194 114.384 56.1441L151.281 93.0498C153.411 95.1809 156.237 96.3527 159.243 96.3527C162.249 96.3527 165.082 95.1809 167.206 93.0498C169.336 90.9251 170.508 88.0921 170.508 85.0853C170.508 82.0785 169.336 79.2456 167.206 77.1208L150.058 59.9686C178.168 63.806 199.693 88.8197 199.693 118.469C199.693 151.009 174.048 177.485 142.52 177.485C136.186 177.485 129.975 176.422 124.027 174.323C130.213 165.335 133.605 152.767 133.605 138.699C133.605 111.181 120.358 90.4293 102.785 90.4293C85.2121 90.4293 71.9649 111.181 71.9649 138.699C71.9649 153.076 75.6661 166.249 82.161 175.193C77.6938 176.615 73.0206 177.337 68.2444 177.337C43.0309 177.337 22.5164 156.817 22.5164 131.597C22.5164 113.331 33.5042 96.7584 50.1051 89.5987L43.9643 114.02C43.2304 116.937 43.6746 119.969 45.2195 122.551C46.7643 125.133 49.2232 126.961 52.1392 127.695C53.0468 127.921 53.9737 128.037 54.8942 128.037C60.063 128.037 64.5496 124.534 65.8112 119.519L78.5434 68.9053C79.2773 65.9886 78.8331 62.9561 77.2883 60.3742C75.7434 57.7924 73.2845 55.9638 70.3685 55.2298L19.7678 42.4944C13.7429 40.9749 7.60845 44.6513 6.09578 50.6714C5.36197 53.588 5.80611 56.6206 7.35098 59.2024C8.89584 61.7843 11.3547 63.6128 14.2707 64.3468L38.0745 70.3346C14.8307 81.7373 0 105.392 0 131.578C0 169.224 30.6205 199.852 68.2572 199.852C80.8286 199.852 93.1295 196.375 103.899 189.795C115.659 196.478 128.996 200.007 142.527 200.007C186.471 200.007 222.229 163.423 222.229 118.456C222.229 97.4022 214.382 77.4106 200.137 62.1577L200.131 62.1513ZM111.082 138.673C111.082 155.137 104.568 163.919 102.791 164.402C101.015 163.919 94.5006 155.13 94.5006 138.673C94.5006 122.216 101.015 113.428 102.791 112.945C104.568 113.428 111.082 122.216 111.082 138.673Z" fill="white"/>
</svg>
