<svg width="24" height="24" viewBox="0 0 24 24" fill="none" xmlns="http://www.w3.org/2000/svg">
<path d="M11.0094 13.3792C10.7563 13.3535 10.5532 13.1397 10.582 12.8824C10.6017 12.7056 10.6352 12.5795 10.6824 12.4017L10.6852 12.3909C10.7683 12.0777 10.8914 11.8268 11.0544 11.6382C11.2174 11.4464 11.4171 11.2739 11.6536 11.1205C11.8582 10.9862 12.0404 10.8568 12.2002 10.7321C12.3632 10.6075 12.491 10.4749 12.5837 10.3342C12.6796 10.1936 12.7275 10.0338 12.7275 9.85481C12.7275 9.69501 12.6891 9.55438 12.6124 9.43293C12.5357 9.31148 12.4319 9.2172 12.3008 9.15009C12.1698 9.08297 12.0244 9.04941 11.8646 9.04941C11.692 9.04941 11.5322 9.08936 11.3852 9.16926C11.2413 9.24916 11.1247 9.35942 11.0352 9.50005C11.0342 9.50162 11.0333 9.5032 11.0323 9.50478C11.0322 9.50504 11.0324 9.50452 11.0323 9.50478C11.0312 9.50649 11.0298 9.50898 11.0288 9.5107C10.8878 9.74817 10.6819 9.98904 10.4058 9.98904H8.95578C8.67787 9.98904 8.44886 9.76147 8.48487 9.4859C8.54724 9.00858 8.69583 8.60581 8.93062 8.27757C9.24383 7.83652 9.65932 7.51372 10.1771 7.30918C10.6948 7.10143 11.2637 6.99756 11.8838 6.99756C12.5677 6.99756 13.1781 7.09824 13.7151 7.29959C14.252 7.49774 14.6755 7.79817 14.9855 8.20087C15.2955 8.60037 15.4505 9.10055 15.4505 9.7014C15.4505 10.0881 15.3834 10.4285 15.2492 10.7225C15.1181 11.0134 14.9344 11.2707 14.6978 11.4944C14.4645 11.7149 14.1913 11.9163 13.8781 12.0984C13.648 12.2327 13.4546 12.3717 13.298 12.5155C13.1414 12.6561 13.0231 12.8175 12.9432 12.9997C12.8482 13.2126 12.6553 13.3818 12.4222 13.3818H11.0606C11.0433 13.3818 11.0262 13.3809 11.0094 13.3792Z" fill="black"/>
<path d="M11.7303 17.1034C11.3596 17.1034 11.0416 16.974 10.7763 16.7151C10.5143 16.453 10.3848 16.135 10.388 15.7611C10.3848 15.3967 10.5143 15.0851 10.7763 14.8262C11.0416 14.5674 11.3596 14.4379 11.7303 14.4379C12.0819 14.4379 12.3919 14.5674 12.6604 14.8262C12.932 15.0851 13.0695 15.3967 13.0727 15.7611C13.0695 16.0104 13.004 16.2373 12.8761 16.4418C12.7515 16.6432 12.5885 16.8046 12.3871 16.926C12.1858 17.0443 11.9668 17.1034 11.7303 17.1034Z" fill="black"/>
<path fill-rule="evenodd" clip-rule="evenodd" d="M22 12C22 17.5228 17.5228 22 12 22C6.47715 22 2 17.5228 2 12C2 6.47715 6.47715 2 12 2C17.5228 2 22 6.47715 22 12ZM19.5 12C19.5 16.1421 16.1421 19.5 12 19.5C7.85787 19.5 4.5 16.1421 4.5 12C4.5 7.85787 7.85787 4.5 12 4.5C16.1421 4.5 19.5 7.85787 19.5 12Z" fill="black"/>
</svg>
