<svg width="24" height="24" viewBox="0 0 24 24" fill="none" xmlns="http://www.w3.org/2000/svg">
<circle cx="12" cy="12" r="12" fill="#4F378B"/>
<path d="M11.3845 5.646H12.3785V6.206C12.3785 8.446 9.94255 10.056 7.35255 10.476L6.91855 9.552C9.18655 9.244 11.3845 7.844 11.3845 6.206V5.646ZM11.5665 5.646H12.5605V6.206C12.5605 7.816 14.7865 9.244 17.0265 9.552L16.5925 10.476C14.0165 10.056 11.5665 8.404 11.5665 6.206V5.646ZM6.24655 11.47H17.6845V12.422H6.24655V11.47ZM11.9585 13.584C14.6745 13.584 16.2985 14.396 16.2985 15.824C16.2985 17.28 14.6745 18.078 11.9585 18.078C9.24255 18.078 7.61855 17.28 7.61855 15.824C7.61855 14.396 9.24255 13.584 11.9585 13.584ZM11.9585 14.48C9.98455 14.48 8.79455 14.984 8.79455 15.824C8.79455 16.692 9.98455 17.182 11.9585 17.182C13.9465 17.182 15.1225 16.692 15.1225 15.824C15.1225 14.984 13.9465 14.48 11.9585 14.48Z" fill="white"/>
</svg>
